# Wavefront OBJ file
# Exported by Misfit Model 3D 1.3.7
# Fri Aug  8 15:22:16 2014

# 24 Vertices
v 5.840304 -0.0 5.231939
v 12.410646 0.121673 3.771863
v 24.0 16.0 0.0
v 12.410646 0.121673 3.771863
v 5.840304 -0.0 5.231939
v 24.266666 -16.0 0.0
v 5.840304 -0.0 5.231939
v 24.0 16.0 0.0
v 0.0 0.121673 0.0
v 24.266666 -16.0 0.0
v 5.840304 -0.0 5.231939
v 0.0 0.121673 0.0
v -5.802794 0.27881 5.231939
v -12.373751 0.196801 3.771863
v -24.058743 -15.611277 0.0
v -12.373751 0.196801 3.771863
v -5.802794 0.27881 5.231939
v -24.132236 16.38975 0.0
v -5.802794 0.27881 5.231939
v -24.058743 -15.611277 0.0
v 0.036669 0.121884 0.0
v -24.132236 16.38975 0.0
v -5.802794 0.27881 5.231939
v 0.036669 0.121884 0.0

# 24 Texture Coordinates
vt 0.0 1.0
vt 0.0 0.0
vt 1.0 0.0
vt 0.0 1.0
vt 0.0 0.0
vt 1.0 0.0
vt 0.0 1.0
vt 0.0 0.0
vt 1.0 0.0
vt 0.0 1.0
vt 0.0 0.0
vt 1.0 0.0
vt 0.0 1.0
vt 0.0 0.0
vt 1.0 0.0
vt 0.0 1.0
vt 0.0 0.0
vt 1.0 0.0
vt 0.0 1.0
vt 0.0 0.0
vt 1.0 0.0
vt 0.0 1.0
vt 0.0 0.0
vt 1.0 0.0

# 24 Vertex Normals
vn 0.215017 0.07438 0.973774
vn 0.215017 0.07438 0.973774
vn 0.215017 0.07438 0.973774
vn 0.217627 -0.067759 0.973677
vn 0.217627 -0.067759 0.973677
vn 0.217627 -0.067759 0.973677
vn -0.465726 0.703942 0.536251
vn -0.465726 0.703942 0.536251
vn -0.465726 0.703942 0.536251
vn -0.474855 -0.714761 0.513448
vn -0.474855 -0.714761 0.513448
vn -0.474855 -0.714761 0.513448
vn -0.215462 -0.073081 0.973774
vn -0.215462 -0.073081 0.973774
vn -0.215462 -0.073081 0.973774
vn -0.217215 0.069071 0.973677
vn -0.217215 0.069071 0.973677
vn -0.217215 0.069071 0.973677
vn 0.461468 -0.706741 0.536251
vn 0.461468 -0.706741 0.536251
vn 0.461468 -0.706741 0.536251
vn 0.479161 0.711882 0.513448
vn 0.479161 0.711882 0.513448
vn 0.479161 0.711882 0.513448

# 8 Ungrouped triangles

o ungrouped
g ungrouped

f 1/1/1 2/2/2 3/3/3
f 4/4/4 5/5/5 6/6/6
f 7/7/7 8/8/8 9/9/9
f 10/10/10 11/11/11 12/12/12
f 13/13/13 14/14/14 15/15/15
f 16/16/16 17/17/17 18/18/18
f 19/19/19 20/20/20 21/21/21
f 22/22/22 23/23/23 24/24/24
